<svg width="0" height="0" class="hidden">
  <symbol viewBox="0 0 32 32" xmlns="http://www.w3.org/2000/svg" id="facebook">
    <path d="M16,0C7.163,0,0,7.163,0,16c0,8.836,7.163,16,16,16s16-7.164,16-16C32,7.163,24.837,0,16,0z"/><path d="M13.69,24.903h3.679v-8.904h2.454l0.325-3.068h-2.779l0.004-1.536c0-0.8,0.076-1.229,1.224-1.229h1.534   V7.097h-2.455c-2.949,0-3.986,1.489-3.986,3.992v1.842h-1.838v3.069h1.838V24.903z" fill="#FFFFFF"/>
  </symbol>
  <symbol viewBox="0 0 80 80" xmlns="http://www.w3.org/2000/svg" id="insta">
    <path d="M49.65,20.92H30.35a9.42,9.42,0,0,0-9.42,9.42V49.65a9.42,9.42,0,0,0,9.42,9.42H49.65a9.42,9.42,0,0,0,9.42-9.42V30.35A9.42,9.42,0,0,0,49.65,20.92ZM40,52.35A12.35,12.35,0,1,1,52.35,40,12.37,12.37,0,0,1,40,52.35ZM52.38,30.7a3,3,0,1,1,3-3A3,3,0,0,1,52.38,30.7Z"/><circle cx="40" cy="40" r="7.55"/><path d="M40,0A40,40,0,1,0,80,40,40,40,0,0,0,40,0ZM63.88,49.65A14.25,14.25,0,0,1,49.65,63.88H30.35A14.25,14.25,0,0,1,16.12,49.65V30.35A14.25,14.25,0,0,1,30.35,16.12H49.65A14.25,14.25,0,0,1,63.88,30.35Z"/>
  </symbol>
  <symbol viewBox="0 0 1000 1000" xmlns="http://www.w3.org/2000/svg" id="skype">
    <path d="M500,1000L500,1000C223.9,1000,0,776.1,0,500v0C0,223.9,223.9,0,500,0h0c276.1,0,500,223.9,500,500v0   C1000,776.1,776.1,1000,500,1000z"/><path fill="#FFFFFF" d="M501.2,683.6c-101.4,0-147.7-51.6-147.7-89.5c0-19.4,15.2-32.8,34.7-32.8c43.4,0,32.1,65.1,113,65.1   c41.4,0,65.7-24.9,65.7-48.3c0-14.1-8.1-29.7-35.3-36.5l-90.1-22.9c-72.6-18.5-85.3-58.8-85.3-96.3c0-77.8,71.1-105.9,138.8-105.9   c62.4,0,136.5,34.4,136.5,81.1c0,20-16.8,30.9-36.2,30.9c-37,0-30.9-52.1-105.4-52.1c-37,0-56.5,17.3-56.5,41.7   c0,24.3,28.6,32.5,54,38.4l66.7,15c73.1,16.5,92.6,59.4,92.6,100.2C646.5,634.8,597.6,683.6,501.2,683.6 M781,549.8   c2.8-16.2,4.3-32.8,4.3-49.8c0-158.5-127.8-287-285.3-287c-16.9,0-33.5,1.5-49.6,4.3c-24.8-14.3-53.5-22.4-84.1-22.4   c-93.7,0-169.7,76.4-169.7,170.6c0,30.8,8.1,59.7,22.3,84.6c-2.8,16.2-4.3,32.8-4.3,49.8c0,158.5,127.8,287,285.3,287   c16.9,0,33.5-1.5,49.6-4.3c24.8,14.3,53.5,22.4,84.1,22.4c93.7,0,169.7-76.4,169.7-170.6C803.3,603.7,795.2,574.8,781,549.8"/>
  </symbol>
  <symbol id="telegram" viewBox="0 0 512 512" xmlns="http://www.w3.org/2000/svg">
    <circle cx="256" cy="256" id="ellipse" r="256"/><path d="M246.4,332.1c-12.3,11.9-24.4,23.7-36.5,35.5c-4.2,4.1-8.9,6.4-15,6.1c-4.1-0.2-6.4-2-7.7-5.9  c-9.2-28.6-18.6-57.2-27.8-85.9c-0.9-2.8-2.2-4.1-5-5c-21.7-6.6-43.5-13.4-65.1-20.3c-3.3-1.1-6.7-2.4-9.6-4.4  c-4.5-3-5.1-7.9-1.1-11.5c3.7-3.3,8.1-6.1,12.7-7.9c26.6-10.5,53.3-20.7,80-31c67.7-26.1,135.4-52.3,203.1-78.4  c12.9-5,22.8,2,21.4,16c-0.9,8.9-3.2,17.7-5,26.5c-14.7,69.4-29.4,138.9-44.2,208.3c-3.5,16.5-15.1,20.8-28.6,10.8  c-22.7-16.7-45.4-33.5-68.1-50.3C248.8,333.8,247.7,333,246.4,332.1z M195.4,353.2c0.3-0.1,0.5-0.1,0.8-0.2c0.1-0.7,0.3-1.3,0.4-1.9  c1.5-15.7,3-31.5,4.3-47.2c0.3-3.5,1.5-6,4.1-8.4c20.9-18.7,41.8-37.6,62.6-56.4c23.1-20.8,46.2-41.6,69.2-62.5c1.4-1.3,2-3.5,3-5.3  c-2.2-0.2-4.5-1.1-6.5-0.6c-2.7,0.7-5.2,2.3-7.6,3.8c-50.9,32.1-101.9,64.2-152.8,96.3c-2.9,1.8-3.4,3.3-2.3,6.5  c3.8,10.8,7.2,21.7,10.7,32.6C186,324.3,190.7,338.8,195.4,353.2z" fill="#FFFFFF"/>
  </symbol>
  <symbol viewBox="0 0 96 96" xmlns="http://www.w3.org/2000/svg" id="viber">
    <path d="M48,0A48,48,0,1,0,96,48,48,48,0,0,0,48,0Zm2.71,25.64c10.69.33,19.93,10,19.8,20.37a4.15,4.15,0,0,0,.05.79c0,.85-.05,1.73-1.23,1.7-1.34,0-1.15-1.32-1.23-2.33V45.9c-1.43-11-6.55-16.21-17.71-17.9-.93-.11-2.33.05-2.3-1.13C48.22,25.09,49.86,25.78,50.71,25.64ZM65,45.49a.86.86,0,0,1-.85.88c-1.21.22-1.4-.49-1.48-1.29a5.23,5.23,0,0,0-.08-.93C61.41,37.46,59,35,52.14,33.48c-1-.22-2.58-.11-2.3-1.62s1.65-1,2.74-.85c6.85.85,12.48,6.69,12.45,13.13C65,44.53,65.05,45.08,65,45.49Zm-5.7-.88a1.31,1.31,0,0,1-.6.16,1.07,1.07,0,0,1-.93-.36,1.9,1.9,0,0,1-.33-.93,4.94,4.94,0,0,0-4.61-4.8c-.85-.14-1.7-.44-1.29-1.53.27-.77,1-.85,1.7-.85,3-.08,6.61,3.51,6.55,6.61A1.86,1.86,0,0,1,59.27,44.61Zm11.38,19.3c-1.18,3.24-5.24,6.55-8.72,6.5a12.59,12.59,0,0,1-2.33-.63C47.15,64.55,37.5,56.54,30.94,45.57a59,59,0,0,1-4-8c-2.11-5.07.08-9.35,5.43-11.13a4.53,4.53,0,0,1,2.82,0c2.3.85,8.06,8.61,8.17,10.94.08,1.78-1.12,2.74-2.36,3.54A3.77,3.77,0,0,0,39,44.39a6.35,6.35,0,0,0,.58,2.19,20.55,20.55,0,0,0,11,10.5c1.78.8,3.51.71,4.74-1.1,2.17-3.21,4.85-3,7.79-1.07,1.43,1,3,2,4.36,3.1C69.39,59.56,71.8,60.76,70.65,63.91Z"/>
  </symbol>
  <symbol style="fill-rule:evenodd;clip-rule:evenodd;stroke-linejoin:round;stroke-miterlimit:2;" viewBox="0 0 512 512" xmlns="http://www.w3.org/2000/svg" id="vimeo">
    <path d="M256,0c141.29,0 256,114.71 256,256c0,141.29 -114.71,256 -256,256c-141.29,0 -256,-114.71 -256,-256c0,-141.29 114.71,-256 256,-256Zm143.233,205.824c-1.335,29.198 -21.728,69.178 -61.183,119.928c-40.787,52.999 -75.299,79.505 -103.521,79.505c-17.491,0 -32.29,-16.131 -44.377,-48.418c-8.071,-29.596 -16.135,-59.188 -24.213,-88.783c-8.977,-32.266 -18.605,-48.422 -28.904,-48.422c-2.245,0 -10.098,4.722 -23.545,14.128l-14.111,-18.176c14.807,-13.007 29.409,-26.011 43.776,-39.039c19.747,-17.055 34.581,-26.029 44.461,-26.936c23.341,-2.245 37.711,13.714 43.104,47.869c5.83,36.853 9.867,59.775 12.129,68.742c6.739,30.582 14.146,45.855 22.227,45.855c6.272,0 15.709,-9.918 28.291,-29.761c12.555,-19.826 19.283,-34.917 20.193,-45.288c1.796,-17.117 -4.94,-25.693 -20.193,-25.693c-7.185,0 -14.591,1.65 -22.209,4.916c14.747,-48.284 42.918,-71.732 84.49,-70.397c30.827,0.907 45.367,20.895 43.585,59.97Z"/>
  </symbol>
  <symbol viewBox="0 0 512 512" xmlns="http://www.w3.org/2000/svg" id="whatsapp">
    <path d="M256,0c141.29,0 256,114.71 256,256c0,141.29 -114.71,256 -256,256c-141.29,0 -256,-114.71 -256,-256c0,-141.29 114.71,-256 256,-256Zm121.527,134.844c-30.646,-30.672 -71.401,-47.571 -114.822,-47.588c-89.468,0 -162.284,72.788 -162.319,162.256c-0.012,28.599 7.462,56.516 21.666,81.122l-23.028,84.086l86.048,-22.564c23.708,12.927 50.401,19.739 77.568,19.751l0.067,0c89.459,0 162.281,-72.797 162.317,-162.266c0.017,-43.358 -16.851,-84.127 -47.497,-114.797Zm-114.821,249.657l-0.054,0c-24.209,-0.01 -47.953,-6.511 -68.667,-18.799l-4.927,-2.924l-51.061,13.391l13.629,-49.769l-3.208,-5.102c-13.505,-21.473 -20.637,-46.293 -20.627,-71.776c0.03,-74.362 60.552,-134.861 134.969,-134.861c36.035,0.014 69.908,14.062 95.38,39.554c25.472,25.493 39.492,59.379 39.478,95.416c-0.03,74.367 -60.551,134.869 -134.912,134.87Zm74.003,-101.01c-4.056,-2.029 -23.996,-11.838 -27.715,-13.191c-3.717,-1.353 -6.42,-2.03 -9.124,2.029c-2.704,4.059 -10.477,13.192 -12.843,15.898c-2.365,2.705 -4.731,3.045 -8.787,1.014c-4.056,-2.028 -17.124,-6.31 -32.615,-20.124c-12.057,-10.75 -20.197,-24.029 -22.563,-28.087c-2.365,-4.059 -0.252,-6.253 1.779,-8.275c1.824,-1.816 4.055,-4.735 6.083,-7.103c2.028,-2.368 2.704,-4.059 4.056,-6.764c1.352,-2.707 0.676,-5.074 -0.338,-7.104c-1.014,-2.029 -9.125,-21.986 -12.505,-30.104c-3.291,-7.906 -6.635,-6.836 -9.125,-6.96c-2.363,-0.118 -5.069,-0.143 -7.773,-0.143c-2.704,0 -7.097,1.015 -10.816,5.074c-3.717,4.059 -14.194,13.868 -14.194,33.824c0,19.957 14.533,39.236 16.561,41.943c2.028,2.706 28.599,43.659 69.284,61.221c9.676,4.177 17.231,6.672 23.121,8.541c9.716,3.085 18.557,2.65 25.546,1.606c7.792,-1.164 23.996,-9.809 27.375,-19.279c3.379,-9.471 3.379,-17.589 2.366,-19.28c-1.014,-1.691 -3.718,-2.706 -7.773,-4.736Z"/>
  </symbol>
  <symbol viewBox="0 0 512 512" xmlns="http://www.w3.org/2000/svg" id="youtube">
    <path d="M256,0c141.29,0 256,114.71 256,256c0,141.29 -114.71,256 -256,256c-141.29,0 -256,-114.71 -256,-256c0,-141.29 114.71,-256 256,-256Zm153.315,178.978c-3.68,-13.769 -14.522,-24.61 -28.29,-28.29c-24.958,-6.688 -125.025,-6.688 -125.025,-6.688c0,0 -100.067,0 -125.025,6.688c-13.765,3.68 -24.61,14.521 -28.29,28.29c-6.685,24.955 -6.685,77.024 -6.685,77.024c0,0 0,52.067 6.685,77.02c3.68,13.769 14.525,24.614 28.29,28.293c24.958,6.685 125.025,6.685 125.025,6.685c0,0 100.067,0 125.025,-6.685c13.768,-3.679 24.61,-14.524 28.29,-28.293c6.685,-24.953 6.685,-77.02 6.685,-77.02c0,0 0,-52.069 -6.685,-77.024Zm-185.316,125.025l0,-96.002l83.137,48.001l-83.137,48.001Z"/>
  </symbol>
</svg>