
<svg xmlns="http://www.w3.org/2000/svg" version="1.1" xmlns:xlink="http://www.w3.org/1999/xlink" viewBox="0 0 1280 720">
<defs>
<radialGradient id="Gradient_1" gradientUnits="userSpaceOnUse" cx="0" cy="0" r="97.33041742564347" fx="0" fy="0" gradientTransform="matrix( -0.3683329523104939, 0.9296939476205248, -1.2009349501587965, -0.4754423254719136, 4.7,-29.7) " spreadMethod="pad">
<stop  offset="25.49019607843137%" stop-color="#000000" stop-opacity="0"/>

<stop  offset="100%" stop-color="#000000" stop-opacity="0.4588235294117647"/>
</radialGradient>

<filter id="Filter_1" x="-20%" y="-20%" width="140%" height="140%" color-interpolation-filters="sRGB">
<feColorMatrix in="SourceGraphic" type="matrix" values="1 0 0 0 0 0 1 0 0 0 0 0 1 0 0 0 0 0 1 0 " result="result1"/>
</filter>

<g id="TOONGURU_MASK_0_Layer0_0_FILL">
<path fill="#FFFFFF" stroke="none" d="
M 63.15 50.65
L 63.15 -50.9 -63 -50.9 -63 50.65 63.15 50.65
M 53.3 -41.15
Q 59.95 -34.45 59.6 -24.8
L 58.85 -0.15
Q 58.5 9.5 52.85 20.7 47.1 32 39.5 37.8
L 39 38.25
Q 31.35 44.15 19.25 46.55 7.2 48.9 -2.1 46.2
L -26.8 39.05
Q -23.7 37.7 -21.4 35.2 -20.25 33.85 -19.55 32.5 -18.4 30.55 -18.4 28.3 -18.6 26.4 -19.75 25.05 -21.25 23.4 -24.3 22.9
L -30.75 22.6
Q -33.4 22.35 -33.4 21.6 -33.5 21.1 -33.2 20.85
L -32.2 19.75
Q -30.9 19.85 -30 19.75 -25.75 19.7 -23.55 17.3 -21.15 14.8 -21.3 10.65 -21.4 8.25 -22.7 6.45
L -20.55 6.2
Q -19.75 6.1 -19 6.3 -18.15 6.5 -17.65 6.95 -16.65 7.9 -16.65 9.65
L -16.7 13.05
Q -16.7 13.85 -16.75 20.25 -16.8 21.35 -16.75 21.9 -16.45 27.1 -14.65 29.35 -12.75 31.95 -7.45 32.05 -5.55 31.95 -3.5 31.3 -1.9 30.7 -0.05 29.3 0.25 29.9 1.35 31.15 2.5 32.4 3.2 32.4
L 3.95 32.2
Q 6.1 31.1 6.45 30.65 4.75 26.15 4.65 24.3
L 4 2.3 2.5 2.35
Q -0.05 2.45 -1 3.05 -2.4 3.85 -2.3 6.15
L -1.75 24.15
Q -1.7 25.4 -2.8 26.15 -3.7 26.75 -5.15 26.9 -6.45 27 -7.25 26.9 -8.45 26.7 -9.1 25.9 -10.3 24.5 -10.35 20.95
L -10.1 14.55
Q -10 10.75 -10.25 8.25 -10.4 5.8 -10.75 4.6 -11.35 2.5 -13.2 2.2 -15.85 1.85 -19.1 2.1 -21.3 2.3 -22.4 2.4 -24.35 2.6 -25.7 2.8 -28.15 1.85 -30.25 1.9 -34.45 2.1 -36.8 4.55 -39.3 7.1 -39.2 11.55 -39 16.65 -35.65 18.5 -35.8 18.7 -36.05 18.95
L -38.45 21.35
Q -39.05 22.2 -39.05 22.65 -38.95 25.2 -35.05 26.3
L -33.85 26.5
Q -32.5 26.8 -31 26.85
L -30.05 26.95
Q -27.3 26.95 -26.6 27.05 -24.5 27.15 -23.8 29.1
L -23.75 29.85
Q -23.65 31.5 -25.35 33.55 -27.1 35.65 -29.55 36.45 -31.5 36.9 -32.95 37.05 -34.25 37.05 -34.35 36.5 -34.6 35.25 -31.2 32.2 -30.5 31.5 -30.75 30.45 -31 29.4 -32 28.9 -35.1 31.2 -37.3 33.6 -38.1 34.55 -38.6 35.3 -45.4 32.1 -50.7 25.4 -57.7 16.55 -58.1 6.9
L -59.65 -31.35
Q -59.9 -38.8 -57.45 -41.75 -54.45 -45.35 -46.15 -45.45
L 36.95 -47.65
Q 46.6 -47.9 53.3 -41.15
M -33.75 11.05
Q -34 8.35 -33.15 6.9 -32.4 5.55 -30.8 5.45 -27.3 5.4 -26.7 10.35 -26.45 13 -27.1 14.55 -27.8 16.15 -29.55 16.25 -33.15 16.35 -33.75 11.05
M -44.5 23.7
Q -45.3 22.85 -46.15 21.8 -46.8 21 -47.3 20.25
L -49.15 21.6
Q -48.55 22.45 -47.9 23.2 -46.9 24.45 -46.2 25.2
L -44.5 23.7
M -51.25 12.55
L -53.4 13.2
Q -52.7 15.4 -51.55 17.6
L -49.55 16.55
Q -50.55 14.6 -51.25 12.55
M -54.4 8.6
L -52.15 8.35
Q -52.25 7.4 -52.3 6.65 -52.35 5.6 -52.4 3.9
L -54.65 3.95 -54.55 6.75
Q -54.5 7.55 -54.4 8.6
M -11.95 37.25
L -12.55 39.45 -8.2 40.7 -7.6 38.55 -11.95 37.25
M -28.65 -13.85
Q -27.6 -7.3 -24.45 -4.6 -21.45 -2.05 -16.45 -2.85 -11.9 -3.6 -9.7 -7.3 -7.35 -11.2 -8.35 -17.4 -9.35 -23.6 -12.35 -26.3 -15.4 -29.05 -20.35 -28.25 -25.1 -27.5 -27.3 -23.95 -29.65 -20.15 -28.65 -13.85
M -23.05 -14.95
Q -23.75 -19.4 -22.75 -21.9 -21.85 -24.05 -19.9 -24.4 -17.7 -24.7 -16.25 -22.95 -14.65 -20.95 -13.9 -16.35 -13.15 -11.65 -14.15 -9.15 -14.95 -6.95 -16.95 -6.65 -21.55 -5.9 -23.05 -14.95
M -55 -5.1
L -54.85 -0.55 -52.55 -0.65 -52.75 -5.2 -55 -5.1
M -55.75 -23.25
L -55.55 -18.7 -53.3 -18.8 -53.45 -23.35 -55.75 -23.25
M -53.1 -14.25
L -55.35 -14.15 -55.2 -9.65 -52.95 -9.75 -53.1 -14.25
M -47.4 -41.3
Q -50.15 -41.15 -51.25 -40.9 -53.45 -40.35 -54.3 -38.8 -54.8 -37.75 -54.95 -35.6 -55.05 -33.75 -54.85 -33.1 -53.55 -33.1 -48.75 -33.3 -46.25 -33.4 -42.85 -33.55
L -42.05 -13.2 -42 -13.2 -41.65 -3.9
Q -41.55 -1.8 -40.45 -0.15 -36.55 -0.35 -35.15 -0.65 -33.65 -1 -32.75 -1.85 -32.95 -4.3 -33.35 -11.45
L -33.9 -33.9
Q -27.4 -34.15 -26.95 -34.15 -23.8 -34.3 -23.1 -34.45 -20.75 -34.9 -20.45 -36.3 -20.3 -37.15 -20.2 -38.9 -20.1 -41.1 -20.1 -42.25
L -22.45 -42.15
Q -38.8 -41.65 -47.4 -41.3
M 27.9 40.35
L 27.1 38.25
Q 25 39.1 22.9 39.65
L 23.5 41.85
Q 25.75 41.2 27.9 40.35
M 34.8 34.1
Q 33.05 35.35 31.1 36.45
L 32.15 38.4
Q 34.3 37.25 36.15 35.95
L 34.8 34.1
M 14.5 43.7
Q 16.5 43.45 18.6 43.05
L 19.05 42.95 18.6 40.75 18.15 40.8
Q 16.25 41.2 14.2 41.45
L 14.5 43.7
M 0.6 43.2
L 1.1 41
Q 0.3 40.85 -0.45 40.6
L -3.2 39.8 -3.85 41.95 -1.1 42.75
Q -0.55 42.95 0.6 43.2
M 9.85 44.05
L 9.8 41.8 8.6 41.8
Q 6.8 41.8 5.4 41.65
L 5.2 43.95
Q 6.9 44.1 8.6 44.1
L 9.85 44.05
M 26.45 11.55
Q 26.45 7.2 24.35 5.15 22.25 3.2 18.6 2.9 15.9 2.65 14.15 2.8 13.25 2.85 12.15 3 10.4 3.3 10.4 3.65
L 10.7 35
Q 11.45 34.95 13.3 34.9 14.85 34.7 15.35 33.7 15.6 33.1 15.5 27 15.35 21.1 15.45 21.1
L 17 20.95 17.4 21.05
Q 20.15 24 23.1 29.9 23.75 31.25 24.3 31.95 25.15 32.9 26.25 33.2 27.15 33.45 28.65 33.3 30.45 33.1 29.8 32.15 28.95 30.9 27.5 28.45
L 24.95 23.9
Q 23.55 21.55 23.05 20.75 22.65 20.1 22.35 19.65 23.65 18.6 24.8 16.65 26.45 13.9 26.45 11.55
M 17.15 6.3
Q 19.2 6.3 20.2 7.5 21.4 8.85 21.4 11.45 21.5 16.25 18.9 17.2 18.3 17.55 17.2 17.45
L 15.4 17.45 15.2 6.35
Q 15.6 6.3 17.15 6.3
M 42.9 29.55
L 41.2 28.1 41.15 28.1
Q 39.7 29.9 38.15 31.3
L 39.7 32.95
Q 41.45 31.35 42.9 29.55
M 51.65 7.5
L 53.85 8.1
Q 54.45 5.8 54.85 3.55
L 52.6 3.2
Q 52.25 5.3 51.65 7.5
M 55.45 -5.65
L 53.2 -5.7 53.05 -1.15 55.3 -1.1 55.45 -5.65
M 55.7 -14.7
L 53.45 -14.75 53.3 -10.25 55.55 -10.15 55.7 -14.7
M 53.75 -23.8
L 53.6 -19.3 55.85 -19.2 56 -23.75 53.75 -23.8
M 55.9 -28.45
Q 55.55 -31 54.6 -33.1
L 52.55 -32.2
Q 53.35 -30.35 53.65 -28.15
L 55.9 -28.45
M 52.1 -37.2
Q 51.6 -37.8 50.8 -38.65 49.7 -39.75 48.6 -40.55
L 47.25 -38.7
Q 48.4 -37.9 49.2 -37.05 49.85 -36.4 50.35 -35.8
L 52.1 -37.2
M 20.95 -6.3
Q 25.1 -11.45 25 -20.55 24.85 -29.6 21.1 -34.15 17.3 -38.7 10 -38.6 3.05 -38.5 -0.85 -33.9 -5 -28.95 -4.85 -19.65 -4.75 -10.05 -0.75 -5.55 3 -1.25 10.35 -1.35 17 -1.45 20.95 -6.3
M 5.25 -29.95
Q 6.95 -32.9 9.85 -32.95 16.6 -33 16.75 -20.2 16.85 -13.3 14.95 -9.85 13.35 -6.9 10.4 -6.9 3.6 -6.8 3.4 -20.05 3.3 -26.55 5.25 -29.95
M 35 -2.3
Q 34.45 -2.95 33.55 -3.1 33.15 -3.1 32.9 -3.05 31.2 -2.45 30.35 -1.85 30.75 0 30.5 2.4
L 29.05 12.2
Q 28.65 16.4 29.75 18.35 31.1 20.6 35.2 21.25 36.75 21.4 38.4 21.05 39.95 20.7 41.35 19.85 41.55 20.45 42.4 21.35 43.3 22.4 43.9 22.45 44.15 22.5 44.55 22.45 46.2 21.9 46.7 21.45 46.3 20.1 46 19.15 45.55 17.4 45.65 16.45
L 46.5 8.4
Q 47 3.8 47.6 -1
L 46.35 -1.15
Q 44.6 -1.25 44.15 -1.25 43.5 -1.2 43 -0.85 42.6 -0.45 42.4 0.1 42.25 0.55 42.15 1.4 41.7 6.1 40.65 15.45 40.55 16.65 39.2 17.2 38.05 17.6 36.8 17.4 35.2 17.2 34.6 16.2 33.85 15 34.15 12.1
L 35.55 3.6
Q 35.75 1.95 35.7 0.75 35.65 0 35.5 -1.1 35.45 -1.8 35 -2.3
M 30.45 -29.85
Q 30.7 -27.5 30.6 -26.35
L 29.95 -17.45
Q 29.55 -12.05 29.1 -7.1
L 30.45 -7
Q 32.4 -6.9 32.9 -6.95 33.6 -7 34.15 -7.4 34.6 -7.9 34.75 -8.45 34.9 -9 34.95 -9.9
L 35.4 -16
Q 35.45 -16.95 35.65 -20.05 35.8 -22.6 35.85 -24.15 35.85 -25.1 36.3 -25.85 36.85 -26.85 37.95 -27.3 39 -27.8 40.25 -27.75 42.3 -27.6 43 -26.35 43.7 -25.15 43.45 -22.3
L 42.45 -8.5
Q 42.35 -7.2 42.85 -6.05 45.4 -5.9 46.45 -6 47.45 -6.1 48.05 -6.55 48.25 -10.9 48.45 -14.05
L 49.05 -22
Q 49.45 -26.9 48.15 -29.05 46.55 -31.6 41.9 -31.95 40.2 -32.1 38.45 -31.6 36.8 -31.2 35.2 -30.3 34.75 -31.55 34.35 -32.45 33.6 -34.1 33 -34.15 32.5 -34.15 32.25 -34.1 30.6 -33.55 29.95 -32.95 30.2 -32.05 30.45 -29.85
M 35.05 -44
L 30.5 -43.9 30.55 -41.65 35.1 -41.75 35.05 -44
M 39.7 -43.95
L 39.5 -41.7
Q 41.6 -41.5 43.6 -40.75
L 44.4 -42.9
Q 42.2 -43.75 39.7 -43.95 Z"/>

<path fill="url(#Gradient_1)" stroke="none" d="
M -33.15 6.9
Q -34 8.35 -33.75 11.05 -33.15 16.35 -29.55 16.25 -27.8 16.15 -27.1 14.55 -26.45 13 -26.7 10.35 -27.3 5.4 -30.8 5.45 -32.4 5.55 -33.15 6.9
M 59.6 -24.8
Q 59.95 -34.45 53.3 -41.15 46.6 -47.9 36.95 -47.65
L -46.15 -45.45
Q -54.45 -45.35 -57.45 -41.75 -59.9 -38.8 -59.65 -31.35
L -58.1 6.9
Q -57.7 16.55 -50.7 25.4 -45.4 32.1 -38.6 35.3 -38.1 34.55 -37.3 33.6 -35.1 31.2 -32 28.9 -31 29.4 -30.75 30.45 -30.5 31.5 -31.2 32.2 -34.6 35.25 -34.35 36.5 -34.25 37.05 -32.95 37.05 -31.5 36.9 -29.55 36.45 -27.1 35.65 -25.35 33.55 -23.65 31.5 -23.75 29.85
L -23.8 29.1
Q -24.5 27.15 -26.6 27.05 -27.3 26.95 -30.05 26.95
L -31 26.85
Q -32.5 26.8 -33.85 26.5
L -35.05 26.3
Q -38.95 25.2 -39.05 22.65 -39.05 22.2 -38.45 21.35
L -36.05 18.95
Q -35.8 18.7 -35.65 18.5 -39 16.65 -39.2 11.55 -39.3 7.1 -36.8 4.55 -34.45 2.1 -30.25 1.9 -28.15 1.85 -25.7 2.8 -24.35 2.6 -22.4 2.4 -21.3 2.3 -19.1 2.1 -15.85 1.85 -13.2 2.2 -11.35 2.5 -10.75 4.6 -10.4 5.8 -10.25 8.25 -10 10.75 -10.1 14.55
L -10.35 20.95
Q -10.3 24.5 -9.1 25.9 -8.45 26.7 -7.25 26.9 -6.45 27 -5.15 26.9 -3.7 26.75 -2.8 26.15 -1.7 25.4 -1.75 24.15
L -2.3 6.15
Q -2.4 3.85 -1 3.05 -0.05 2.45 2.5 2.35
L 4 2.3 4.65 24.3
Q 4.75 26.15 6.45 30.65 6.1 31.1 3.95 32.2
L 3.2 32.4
Q 2.5 32.4 1.35 31.15 0.25 29.9 -0.05 29.3 -1.9 30.7 -3.5 31.3 -5.55 31.95 -7.45 32.05 -12.75 31.95 -14.65 29.35 -16.45 27.1 -16.75 21.9 -16.8 21.35 -16.75 20.25 -16.7 13.85 -16.7 13.05
L -16.65 9.65
Q -16.65 7.9 -17.65 6.95 -18.15 6.5 -19 6.3 -19.75 6.1 -20.55 6.2
L -22.7 6.45
Q -21.4 8.25 -21.3 10.65 -21.15 14.8 -23.55 17.3 -25.75 19.7 -30 19.75 -30.9 19.85 -32.2 19.75
L -33.2 20.85
Q -33.5 21.1 -33.4 21.6 -33.4 22.35 -30.75 22.6
L -24.3 22.9
Q -21.25 23.4 -19.75 25.05 -18.6 26.4 -18.4 28.3 -18.4 30.55 -19.55 32.5 -20.25 33.85 -21.4 35.2 -23.7 37.7 -26.8 39.05
L -2.1 46.2
Q 7.2 48.9 19.25 46.55 31.35 44.15 39 38.25
L 39.5 37.8
Q 47.1 32 52.85 20.7 58.5 9.5 58.85 -0.15
L 59.6 -24.8
M 39.5 -41.7
L 39.7 -43.95
Q 42.2 -43.75 44.4 -42.9
L 43.6 -40.75
Q 41.6 -41.5 39.5 -41.7
M 30.5 -43.9
L 35.05 -44 35.1 -41.75 30.55 -41.65 30.5 -43.9
M 21.5 -41.35
L 21.45 -43.65 25.95 -43.75 26.05 -41.5 21.5 -41.35
M 30.6 -26.35
Q 30.7 -27.5 30.45 -29.85 30.2 -32.05 29.95 -32.95 30.6 -33.55 32.25 -34.1 32.5 -34.15 33 -34.15 33.6 -34.1 34.35 -32.45 34.75 -31.55 35.2 -30.3 36.8 -31.2 38.45 -31.6 40.2 -32.1 41.9 -31.95 46.55 -31.6 48.15 -29.05 49.45 -26.9 49.05 -22
L 48.45 -14.05
Q 48.25 -10.9 48.05 -6.55 47.45 -6.1 46.45 -6 45.4 -5.9 42.85 -6.05 42.35 -7.2 42.45 -8.5
L 43.45 -22.3
Q 43.7 -25.15 43 -26.35 42.3 -27.6 40.25 -27.75 39 -27.8 37.95 -27.3 36.85 -26.85 36.3 -25.85 35.85 -25.1 35.85 -24.15 35.8 -22.6 35.65 -20.05 35.45 -16.95 35.4 -16
L 34.95 -9.9
Q 34.9 -9 34.75 -8.45 34.6 -7.9 34.15 -7.4 33.6 -7 32.9 -6.95 32.4 -6.9 30.45 -7
L 29.1 -7.1
Q 29.55 -12.05 29.95 -17.45
L 30.6 -26.35
M 16.95 -41.25
L 12.45 -41.15 12.35 -43.4 16.9 -43.5 16.95 -41.25
M 7.9 -41
L 3.35 -40.9 3.3 -43.15 7.85 -43.25 7.9 -41
M 33.55 -3.1
Q 34.45 -2.95 35 -2.3 35.45 -1.8 35.5 -1.1 35.65 0 35.7 0.75 35.75 1.95 35.55 3.6
L 34.15 12.1
Q 33.85 15 34.6 16.2 35.2 17.2 36.8 17.4 38.05 17.6 39.2 17.2 40.55 16.65 40.65 15.45 41.7 6.1 42.15 1.4 42.25 0.55 42.4 0.1 42.6 -0.45 43 -0.85 43.5 -1.2 44.15 -1.25 44.6 -1.25 46.35 -1.15
L 47.6 -1
Q 47 3.8 46.5 8.4
L 45.65 16.45
Q 45.55 17.4 46 19.15 46.3 20.1 46.7 21.45 46.2 21.9 44.55 22.45 44.15 22.5 43.9 22.45 43.3 22.4 42.4 21.35 41.55 20.45 41.35 19.85 39.95 20.7 38.4 21.05 36.75 21.4 35.2 21.25 31.1 20.6 29.75 18.35 28.65 16.4 29.05 12.2
L 30.5 2.4
Q 30.75 0 30.35 -1.85 31.2 -2.45 32.9 -3.05 33.15 -3.1 33.55 -3.1
M 25 -20.55
Q 25.1 -11.45 20.95 -6.3 17 -1.45 10.35 -1.35 3 -1.25 -0.75 -5.55 -4.75 -10.05 -4.85 -19.65 -5 -28.95 -0.85 -33.9 3.05 -38.5 10 -38.6 17.3 -38.7 21.1 -34.15 24.85 -29.6 25 -20.55
M 50.8 -38.65
Q 51.6 -37.8 52.1 -37.2
L 50.35 -35.8
Q 49.85 -36.4 49.2 -37.05 48.4 -37.9 47.25 -38.7
L 48.6 -40.55
Q 49.7 -39.75 50.8 -38.65
M 54.6 -33.1
Q 55.55 -31 55.9 -28.45
L 53.65 -28.15
Q 53.35 -30.35 52.55 -32.2
L 54.6 -33.1
M 53.6 -19.3
L 53.75 -23.8 56 -23.75 55.85 -19.2 53.6 -19.3
M 53.45 -14.75
L 55.7 -14.7 55.55 -10.15 53.3 -10.25 53.45 -14.75
M 53.2 -5.7
L 55.45 -5.65 55.3 -1.1 53.05 -1.15 53.2 -5.7
M 53.85 8.1
L 51.65 7.5
Q 52.25 5.3 52.6 3.2
L 54.85 3.55
Q 54.45 5.8 53.85 8.1
M 41.2 28.1
L 42.9 29.55
Q 41.45 31.35 39.7 32.95
L 38.15 31.3
Q 39.7 29.9 41.15 28.1
L 41.2 28.1
M 24.35 5.15
Q 26.45 7.2 26.45 11.55 26.45 13.9 24.8 16.65 23.65 18.6 22.35 19.65 22.65 20.1 23.05 20.75 23.55 21.55 24.95 23.9
L 27.5 28.45
Q 28.95 30.9 29.8 32.15 30.45 33.1 28.65 33.3 27.15 33.45 26.25 33.2 25.15 32.9 24.3 31.95 23.75 31.25 23.1 29.9 20.15 24 17.4 21.05
L 17 20.95 15.45 21.1
Q 15.35 21.1 15.5 27 15.6 33.1 15.35 33.7 14.85 34.7 13.3 34.9 11.45 34.95 10.7 35
L 10.4 3.65
Q 10.4 3.3 12.15 3 13.25 2.85 14.15 2.8 15.9 2.65 18.6 2.9 22.25 3.2 24.35 5.15
M 9.8 41.8
L 9.85 44.05 8.6 44.1
Q 6.9 44.1 5.2 43.95
L 5.4 41.65
Q 6.8 41.8 8.6 41.8
L 9.8 41.8
M 1.1 41
L 0.6 43.2
Q -0.55 42.95 -1.1 42.75
L -3.85 41.95 -3.2 39.8 -0.45 40.6
Q 0.3 40.85 1.1 41
M 18.6 43.05
Q 16.5 43.45 14.5 43.7
L 14.2 41.45
Q 16.25 41.2 18.15 40.8
L 18.6 40.75 19.05 42.95 18.6 43.05
M 31.1 36.45
Q 33.05 35.35 34.8 34.1
L 36.15 35.95
Q 34.3 37.25 32.15 38.4
L 31.1 36.45
M 27.1 38.25
L 27.9 40.35
Q 25.75 41.2 23.5 41.85
L 22.9 39.65
Q 25 39.1 27.1 38.25
M -51.25 -40.9
Q -50.15 -41.15 -47.4 -41.3 -38.8 -41.65 -22.45 -42.15
L -20.1 -42.25
Q -20.1 -41.1 -20.2 -38.9 -20.3 -37.15 -20.45 -36.3 -20.75 -34.9 -23.1 -34.45 -23.8 -34.3 -26.95 -34.15 -27.4 -34.15 -33.9 -33.9
L -33.35 -11.45
Q -32.95 -4.3 -32.75 -1.85 -33.65 -1 -35.15 -0.65 -36.55 -0.35 -40.45 -0.15 -41.55 -1.8 -41.65 -3.9
L -42 -13.2 -42.05 -13.2 -42.85 -33.55
Q -46.25 -33.4 -48.75 -33.3 -53.55 -33.1 -54.85 -33.1 -55.05 -33.75 -54.95 -35.6 -54.8 -37.75 -54.3 -38.8 -53.45 -40.35 -51.25 -40.9
M -55.35 -14.15
L -53.1 -14.25 -52.95 -9.75 -55.2 -9.65 -55.35 -14.15
M -55.55 -18.7
L -55.75 -23.25 -53.45 -23.35 -53.3 -18.8 -55.55 -18.7
M -54.85 -0.55
L -55 -5.1 -52.75 -5.2 -52.55 -0.65 -54.85 -0.55
M -5.75 -42.9
L -1.2 -43.05 -1.15 -40.75 -5.7 -40.65 -5.75 -42.9
M -10.3 -42.8
L -10.25 -40.55 -14.75 -40.4 -14.8 -42.65 -10.3 -42.8
M -24.45 -4.6
Q -27.6 -7.3 -28.65 -13.85 -29.65 -20.15 -27.3 -23.95 -25.1 -27.5 -20.35 -28.25 -15.4 -29.05 -12.35 -26.3 -9.35 -23.6 -8.35 -17.4 -7.35 -11.2 -9.7 -7.3 -11.9 -3.6 -16.45 -2.85 -21.45 -2.05 -24.45 -4.6
M -12.55 39.45
L -11.95 37.25 -7.6 38.55 -8.2 40.7 -12.55 39.45
M -52.15 8.35
L -54.4 8.6
Q -54.5 7.55 -54.55 6.75
L -54.65 3.95 -52.4 3.9
Q -52.35 5.6 -52.3 6.65 -52.25 7.4 -52.15 8.35
M -53.4 13.2
L -51.25 12.55
Q -50.55 14.6 -49.55 16.55
L -51.55 17.6
Q -52.7 15.4 -53.4 13.2
M -46.15 21.8
Q -45.3 22.85 -44.5 23.7
L -46.2 25.2
Q -46.9 24.45 -47.9 23.2 -48.55 22.45 -49.15 21.6
L -47.3 20.25
Q -46.8 21 -46.15 21.8
M -22.75 -21.9
Q -23.75 -19.4 -23.05 -14.95 -21.55 -5.9 -16.95 -6.65 -14.95 -6.95 -14.15 -9.15 -13.15 -11.65 -13.9 -16.35 -14.65 -20.95 -16.25 -22.95 -17.7 -24.7 -19.9 -24.4 -21.85 -24.05 -22.75 -21.9
M 20.2 7.5
Q 19.2 6.3 17.15 6.3 15.6 6.3 15.2 6.35
L 15.4 17.45 17.2 17.45
Q 18.3 17.55 18.9 17.2 21.5 16.25 21.4 11.45 21.4 8.85 20.2 7.5
M 9.85 -32.95
Q 6.95 -32.9 5.25 -29.95 3.3 -26.55 3.4 -20.05 3.6 -6.8 10.4 -6.9 13.35 -6.9 14.95 -9.85 16.85 -13.3 16.75 -20.2 16.6 -33 9.85 -32.95 Z"/>
</g>
</defs>

<g filter="url(#Filter_1)" transform="matrix( 1, 0, 0, 1, 0,0) ">
<g transform="matrix( 1.1173553466796875, 0, 0, 1.1173553466796875, 639.9,360.65) ">
<g transform="matrix( 1, 0, 0, 1, 0,0) ">
<use xlink:href="#TOONGURU_MASK_0_Layer0_0_FILL"/>
</g>
</g>
</g>
</svg>
